 http://www.shotpix.com/images/00060837888659995121.jpg



 
http://www.imdb.com/title/tt1904996/



Plot:A thief with a unique code of professional ethics is double-crossed by his crew and left for dead. Assuming a new disguise and forming an unlikely alliance with a woman on the inside, he looks to hijack the score of the crew's latest heist.
 


Director: 
Taylor Hackford

 Writers: 
John J. McLaughlin (screenplay), Donald E. Westlake (novel)
 
Stars:
 Jason Statham, Jennifer Lopez and Michael Chiklis

Genres:
 Crime | Thriller 

Country:
USA 

Language:
English



Source: HP....THANKS



Format                           : AVI
Format/Info                      : Audio Video Interleave
File size                        : 987 MiB
Duration                         : 1h 50mn
Overall bit rate                 : 1 254 Kbps
Writing library                  : VirtualDub build 33848/release

Video
ID                               : 0
Format                           : MPEG-4 Visual
Format profile                   : Advanced Simple@L5
Format settings, BVOP            : Yes
Format settings, QPel            : No
Format settings, GMC             : No warppoints
Format settings, Matrix          : Default (H.263)
Muxing mode                      : Packed bitstream
Codec ID                         : XVID
Codec ID/Hint                    : XviD
Duration                         : 1h 50mn
Bit rate                         : 1 115 Kbps
Width                            : 640 pixels
Height                           : 352 pixels
Display aspect ratio             : 16:9
Frame rate                       : 29.970 fps
Color space                      : YUV
Chroma subsampling               : 4:2:0
Bit depth                        : 8 bits
Scan type                        : Progressive
Bits/(Pixel*Frame)               : 0.165
Stream size                      : 877 MiB (89%)
Writing library                  : XviD 1.2.1 (UTC 2008-12-04)

Audio
ID                               : 1
Format                           : MPEG Audio
Format version                   : Version 1
Format profile                   : Layer 3
Mode                             : Joint stereo
Mode extension                   : MS Stereo
Codec ID                         : 55
Codec ID/Hint                    : MP3
Duration                         : 1h 50mn
Bit rate mode                    : Constant
Bit rate                         : 128 Kbps
Channel(s)                       : 2 channels
Sampling rate                    : 48.0 KHz
Stream size                      : 101 MiB (10%)
Alignment                        : Split accross interleaves
Interleave, duration             : 33 ms (1.00 video frame)
Interleave, preload duration     : 500 ms

Workdone:
Adjusted AR, rotated video, cropped out black borders, adjust levels, brightness, saturation, contrast and used a denoiser

Audio: wasnt all that great, used a denoiser, used a normalizer.



 
http://www.shotpix.com/images/05703374235342154097.png 
http://www.shotpix.com/images/36124873495775577288.png 
http://www.shotpix.com/images/71790577629504243961.png 
http://www.shotpix.com/images/53696553221706100590.png 
http://www.shotpix.com/images/06734032754017827047.png 
http://www.shotpix.com/images/83859779251161602885.png
